<svg version="1.2" xmlns="http://www.w3.org/2000/svg" viewBox="0 0 459 137" width="97" height="29">
	<title>1</title>
	<defs>
		<clipPath clipPathUnits="userSpaceOnUse" id="cp1">
			<path d="m410.67 11.61h43.76v116.72h-43.76z"/>
		</clipPath>
		<clipPath clipPathUnits="userSpaceOnUse" id="cp2">
			<path d="m309.43 71h43.9v57.33h-43.9z"/>
		</clipPath>
	</defs>
	<style>
		.s0 { fill: #7ed957 } 
		.s1 { fill: #e1cb31 } 
		.s2 { fill: #27ae60 } 
		.s3 { fill: #ddd3d3 } 
	</style>
	<path class="s0" d="m403.48 39.97q-0.23-1.5-0.74-2.73-2.27-5.6-10.15-5.6h-21.15q-7.88 0-10.15 5.6-0.5 1.24-0.74 2.73-0.19 1.27-0.19 2.73v85.34h43.3v-85.34q0-1.46-0.18-2.73z"/>
	<g id="Clip-Path" clip-path="url(#cp1)">
		<g>
			<path class="s1" d="m411.3 125.31v2.73h43.29v-105.26q0.01-8.39-6.35-10.45-2.03-0.63-4.72-0.63h-21.15q-9.3 0-10.81 7.83-0.26 1.48-0.26 3.25v17.19z"/>
		</g>
	</g>
	<g id="Clip-Path" clip-path="url(#cp2)">
		<g>
			<path class="s2" d="m347.56 72.6q-0.3-0.13-0.62-0.25-0.8-0.31-1.74-0.51-0.64-0.14-1.33-0.24-0.31-0.02-0.67-0.07-0.02 0-0.03 0 0.01 0 0.03 0 0 0.02-0.03 0-0.72-0.03-1.52-0.04h-21.14q-0.65 0-1.26 0.04-9.82 0.6-9.82 11.03v7.89 37.58h43.29v-45.46q0.01-7.56-5.16-9.97z"/>
		</g>
	</g>
	<g>
		<g>
			<g>
				<path class="s3" d="m19.52 108.52l-3.06 17.54h-10.04l8.67-49.81 17.43 0.04q8.08 0 12.69 4.48 4.62 4.48 4.04 11.69-0.54 7.33-6.1 11.71-5.57 4.37-14.17 4.37zm1.42-8.31l8.33 0.06q4.04 0 6.71-2.08 2.66-2.08 3.19-5.65 0.51-3.56-1.15-5.69-1.67-2.12-4.91-2.25l-9.44-0.04z"/>
			</g>
		</g>
	</g>
	<g>
		<g>
			<g>
				<path class="s3" d="m57.97 126.06h-10.02l8.6-49.81h10.04z"/>
			</g>
		</g>
	</g>
	<g>
		<g>
			<g>
				<path class="s3" d="m64.13 126.06l8.67-49.81 15.52 0.04q8.67 0.02 13 3.52 4.35 3.49 3.94 9.81-0.48 7.57-8.71 11.07 2.96 1.02 4.6 3.85 1.65 2.82 1.42 6.65-0.48 7.04-5.54 10.95-5.05 3.92-13.77 3.92zm13.83-21.69l-2.35 13.44 7.89 0.04q3.69 0 6.19-1.83 2.5-1.83 2.98-4.94 0.48-3.08-0.83-4.81-1.32-1.73-4.44-1.85zm1.23-7.25l6.81 0.06q3.79-0.06 6.21-1.77 2.41-1.71 2.9-4.77 0.85-6.02-6.34-6.05l-7.39-0.04z"/>
			</g>
		</g>
	</g>
	<g>
		<g>
			<g>
				<path class="s3" d="m148.18 84.56h-14.77l-7.19 41.5h-10.02l7.19-41.5h-14.63l1.48-8.31h39.42z"/>
			</g>
		</g>
	</g>
	<g>
		<g>
			<g>
				<path class="s3" d="m168.39 98.31q-2-0.33-3.25-0.33-5.18-0.15-8.19 3.85l-4.27 24.23h-9.65l6.44-37.02 9.06-0.02-0.89 4.5q3.5-5.23 8.62-5.23 1.44 0 3.36 0.48z"/>
			</g>
		</g>
	</g>
	<g>
		<g>
			<g>
				<path class="s3" d="m182.46 126.75q-4.86-0.04-8.6-2.38-3.75-2.35-5.61-6.43-1.83-4.08-1.41-9.02l0.08-1.36q0.52-5.41 3.15-9.92 2.64-4.51 6.77-6.95 4.14-2.46 9.18-2.34 7.14 0.15 10.82 5.27 3.68 5.11 2.79 12.94l-0.54 4.21h-22.69q-0.13 3.59 1.75 5.75 1.87 2.15 5.12 2.23 5.27 0.12 9.25-4.08l4.42 5.47q-2.11 3.15-6.04 4.92-3.92 1.75-8.44 1.69zm3.08-30.42q-2.67-0.06-4.75 1.69-2.06 1.73-3.7 6.04h13.27l0.21-0.89q0.2-1.36 0.04-2.59-0.36-2-1.69-3.1-1.34-1.1-3.38-1.15z"/>
			</g>
		</g>
	</g>
	<g>
		<g>
			<g>
				<path class="s3" d="m213.91 89.02l-0.81 4.37q4.43-5.16 10.77-5.04 5.23 0.11 7.73 3.84 2.5 3.73 1.81 10.33l-3.9 23.54h-9.64l3.98-23.64q0.16-1.33 0.06-2.42-0.46-3.5-4.37-3.61-3.82-0.12-6.82 3.53l-4.62 26.14h-9.65l6.44-37.02z"/>
			</g>
		</g>
	</g>
	<g>
		<g>
			<g>
				<path class="s3" d="m252.15 88.33q5.16 0.13 8.34 4.13l3.62-18.94h9.69l-9.11 52.54h-8.6l0.54-3.96q-4.15 4.81-9.64 4.67-3.47-0.03-6.07-1.79-2.61-1.79-4.02-5.13-1.42-3.33-1.56-7.43-0.09-2.17 0.1-4.19l0.21-1.52q0.83-5.69 3.17-10 2.35-4.31 5.75-6.4 3.39-2.08 7.58-1.98zm-7.02 19.9q-0.27 2.61-0.17 4.39 0.33 6.03 4.86 6.13 4.06 0.17 7.08-3.83l2.63-14.71q-1.34-3.67-5.34-3.84-3.52-0.1-5.87 2.73-2.34 2.82-3.19 9.13z"/>
			</g>
		</g>
	</g>
	<g>
		<g>
			<g>
				<path class="s3" d="m290.56 115.62q0.54-2.72-3.82-3.95l-3.1-0.8q-11.06-3.04-10.75-10.75 0.16-5.22 4.63-8.52 4.47-3.31 10.77-3.25 6.26 0.09 10.12 3.34 3.88 3.25 3.94 8.64l-9.58-0.02q0.07-4.77-4.71-4.83-2.28 0-3.94 1.12-1.65 1.13-2.02 3.04-0.53 2.75 4.14 3.88l1.36 0.31q4.73 1.13 7.23 2.59 2.5 1.43 3.83 3.6 1.35 2.15 1.25 5.17-0.08 3.52-2.27 6.16-2.17 2.63-5.96 4.07-3.77 1.43-7.94 1.33-6.17-0.06-10.27-3.54-4.1-3.48-4.16-8.98l9.1 0.06q0.12 5.31 5.67 5.38 2.66 0 4.39-1.09 1.73-1.1 2.09-2.96z"/>
			</g>
		</g>
	</g>
</svg>